<svg version="1" xmlns="http://www.w3.org/2000/svg" width="4096" height="4096" viewBox="0 0 3072.000000 3072.000000"><path d="M1483.8 410.5c-.2.2-6.4.6-13.8 1-15.7.7-25.9 1.3-35 2-3.6.3-9.4.8-13 1-6.6.5-15.4 1.3-20 2-1.4.2-6.1.6-10.4 1-4.3.4-8.6.8-9.5 1-.9.1-4.3.6-7.6.9-3.3.4-7.1.9-8.5 1.1-6.8 1-10.9 1.5-15.5 2.1-2.7.3-5.7.7-6.5.9-.8.1-4 .6-7 1.1-3 .4-5.7.8-6 .9-.3.1-3 .5-6 .9-3 .5-6.4 1-7.5 1.2-1.1.2-3.3.7-5 1-2.9.5-4.6.8-11.7 1.9-1.8.3-4 .8-4.8 1-.8.2-3.1.7-5 1-6.5 1-28.4 5.7-43.5 9.2-8.2 1.9-16 3.7-17.3 3.9-4.7.9-47.1 12.4-55.2 14.9-15.2 4.8-23.1 10.7-27.8 20.8-3.2 6.9-16.7 58-21.7 82.2-.2 1.1-1.5 7.6-3 14.5-1.4 6.9-2.8 14.1-3.1 16-.3 1.9-.7 4.2-.9 5-.3.8-.7 3.2-1.1 5.4-.3 2.1-.8 4.8-1 6-.2 1.1-.9 5-1.4 8.6-.6 3.6-1.3 7.6-1.6 9-.2 1.4-.7 4.3-.9 6.5-.3 2.2-1 6.7-1.5 10s-1.1 7.8-1.4 10c-.9 6.9-1.7 12.9-2.1 15.5-.2 1.4-.6 5.2-1 8.5-.3 3.3-.8 7.8-1 10-.8 6.8-1.4 12.7-2 20-.3 3.8-.8 8.8-1 11.1-.4 3.9-1.1 15-2 29.9-2.7 46.5-2.3 114.5.9 158 .3 3.8.8 10.8 1.1 15.5.8 11 1.4 17.6 3 32.5.2 2.2.9 8.7 1.5 14.5.6 5.8 1.5 13.2 2 16.5.5 3.3 1.2 8.7 1.5 12 .4 3.3.8 6.7 1 7.5.2.8.7 3.5 1 6 2.2 16.7 7.7 46.8 15 82l2 8c.9 3.6 1.8 7.4 2 8.5.5 4.1 10.6 41.7 16 59.5 3.1 10.2 5.8 19.2 6 20 1.5 5.3 15.1 44.4 16.5 47.5.5 1.1 3.3 8.3 6.3 16 5.5 14.2 11.9 29.5 16.4 39.5 10.1 22.2 13.6 29.7 22.1 46.5 14.8 29.5 35.4 66 50 88.5 32.1 49.5 59.2 86 94 126.5 5.3 6 10 11.5 10.6 12 .6.6 4.9 5.3 9.6 10.5 23.3 26.1 65.3 67.5 87.4 86.3 2.6 2.3 6 5.4 7.5 6.8 1.4 1.4 5.3 4.8 8.6 7.5s6.5 5.4 7 6c2.1 2.3 37.6 30.5 51 40.5 7.7 5.7 14.4 10.8 15 11.2 13.6 10.6 70.8 47.9 90.5 58.9 2.5 1.4 6.3 3.6 8.5 4.8 4.8 2.8 16.3 9.2 25.9 14.4 7.7 4.3 50.3 25.6 51 25.6.2 0 4.2 1.7 8.8 3.9 20.4 9.5 49.6 21.6 74.3 30.8 10.1 3.8 13.2 4.5 19.5 4.5 12.6.1 17.4-2.3 30.5-15.6 12.8-12.9 15.5-16 25.1-28.1 22.7-28.6 42.2-61.4 56.8-94.9 4.9-11.2 11.5-27.9 12.1-30.6.2-.8 1.1-3.5 2-6 1.9-5.2 9.8-33.1 11.4-40.5 1.9-8.2 4.8-22.7 5.6-27.9.3-1.7.7-4.2 1-5.6.5-2.4 1-6.3 2-14.5.3-2.2.7-5.4.9-7 2.6-19 4-43.8 3.9-71 0-28.7-.6-37.8-3.1-44.2-4-10.6-10.9-16.7-25.3-22.7-16.8-6.9-44.7-20.4-58.9-28.4-19-10.6-42.8-25.4-57.2-35.4-2.9-2.1-7.1-5-9.3-6.5-8.6-6-37.7-28.9-45.5-35.9-39.6-35.3-60.6-57.4-95.7-100.8-7.1-8.7-32-44.6-39-56.2-16.1-26.4-31.8-56.3-42.1-79.9-11.5-26.4-28.3-73.8-32.8-92.5-.2-.8-1.2-4.9-2.3-9-6-22.2-15.1-68-16.7-83.9-.3-3.1-.7-6.3-.9-7.1-.4-1.4-.9-4.8-2-15.8-.3-2.6-.7-7-1-9.7-.3-2.8-.8-7.5-1-10.5-.3-3-.8-9.3-1.2-14-1.9-20.9.1-30 8.6-38.8 7.8-8.1 18.7-12.4 29.9-11.7 11.3.7 29.7 2.4 35.6 3.1 2.2.3 6.2.7 9 .9 2.8.2 6.7.6 8.6.9 1.9.3 5.5.8 8 1.1 2.5.4 5.7.8 7.3 1.1 1.5.2 3.9.6 5.5.8 1.5.3 4.5.7 6.7 1.1 4 .5 6.3.9 11.5 2 1.4.2 3.9.7 5.5 1 8.2 1.3 28.8 5.8 43.5 9.5 104.3 25.9 195.4 73.7 276.2 144.8 14 12.2 42.8 40.7 53.8 53.1 4.1 4.6 8 8.9 8.6 9.5 1.9 2 21.9 26.1 24.4 29.5 1.4 1.8 3.6 4.7 5 6.4 11.2 13.7 38.6 55.5 50 76.2 1.8 3.3 4.2 7.6 5.3 9.5 3.8 6.8 17.5 34.6 20.7 42 1.8 4.1 4 9.3 5 11.5 7.8 17.4 20.4 52.7 27 75.4 4 14.1 10.6 39.6 11.4 44.4.3 1.5.7 3.5 1 4.5.3.9.7 2.8 1 4.2.8 4.3 2.6 13.4 3.1 16 1.1 5.4 4.3 24.4 5 30.3.2 1.5.9 6.4 1.5 11 .6 4.5 1.2 9.5 1.5 11.2.2 1.6.7 6.1 1 10 .4 3.8.8 8 1 9.2.3 1.9.9 9.3 2 25.8 2.6 36.6 2.1 96-1 128.5-.3 3-.8 8.2-1.1 11.5-.3 3.3-.7 7.6-1 9.5-.3 1.9-.7 6-1 9-.3 3-.7 6.6-.9 8-.2 1.4-.7 4.7-1 7.5-.3 2.7-.8 5.7-1 6.5-.2.8-.7 3.5-1 6-1.8 13-5.1 30.1-10.6 54-3.7 15.7-5.4 22.2-11.9 45-5.1 17.7-19.9 57.9-27.4 74.2-1.4 3.1-2.6 5.9-2.6 6.3 0 1.6-19.2 39.7-27.5 54.6-11.9 21.4-36.2 59.6-44.2 69.4-.4.6-2.8 3.7-5.2 7-29.5 39.9-69.2 81-109.1 113.1-4.1 3.3-11.1 8.7-15.5 12-4.4 3.2-8.2 6.2-8.5 6.5-.8.9-34.7 23.9-35.3 23.9-.3 0-3.3 1.8-6.6 4s-6.4 4-7 4c-.5 0-1.1.4-1.3.8-.1.4-2.3 1.9-4.8 3.3s-6.3 3.6-8.5 4.9c-2.2 1.2-14.8 7.8-28 14.5-28 14.2-50.1 23.8-74.5 32.5-9.6 3.4-18.4 6.6-19.5 7.1-1.1.4-5.4 1.7-9.5 2.9s-9.5 2.9-12 3.7c-2.5.8-13.9 3.9-25.5 6.8-18.5 4.7-23.9 6-34.5 7.9-2.7.5-11.9 2.3-16 3.1-1.4.3-5.2 1-8.5 1.5s-6.9 1.2-8 1.4c-3.2.6-10.7 1.6-15.5 2.1-2.5.3-5.4.7-6.5.9-1.1.2-5.1.7-9 1.1-3.8.4-7.8.9-8.8 1.1-1.1.2-5.6.6-10 .9-4.5.4-9.8.8-11.7 1-26.6 2.7-114.1 2.7-136.5 0-1.6-.2-6.7-.7-11.1-1-4.5-.3-9.2-.8-10.5-1-1.3-.2-5.4-.6-9.1-1-3.7-.3-7.7-.8-9-1-1.3-.2-4.5-.6-7.3-1-2.7-.3-9.3-1.3-14.5-2.1-5.2-.9-10.8-1.8-12.5-2-1.6-.3-7.7-1.4-13.5-2.6-5.8-1.1-11.6-2.2-13-2.4-1.4-.3-3.3-.7-4.2-1-1-.3-3-.7-4.5-1-1.6-.3-9.1-2.1-16.8-4-7.7-2-15.1-3.8-16.4-4-1.4-.3-2.8-.7-3.3-1-.4-.3-1.6-.7-2.5-.9-5.7-1.1-42-13.1-54.8-18.2-6-2.3-11.3-4.3-11.7-4.3-.4 0-3.1-1.1-6-2.4-2.9-1.3-7.5-3.4-10.3-4.6-9.7-4.2-12.1-5.3-24.5-11.3-11-5.2-31.2-15.9-39.1-20.6-1.5-.9-6.8-3.9-11.7-6.8-12-7.1-37.1-23.9-51.7-34.8-10.2-7.5-37.9-29.7-39.5-31.5-.3-.3-5-4.6-10.5-9.5-30.8-27.4-65.5-65.6-92.2-101.5-10.1-13.5-33.3-48.1-33.3-49.6 0-.4-.6-1.5-1.4-2.3-.8-.9-2.4-3.4-3.6-5.6-13.8-24.6-16.4-29.3-23.5-44-21.4-44.1-37-87.6-48.6-135.2-2.3-9.2-4.3-17.9-4.6-19.3-.2-1.4-1-5.2-1.8-8.5-.7-3.3-1.6-7.6-1.9-9.5-.3-1.9-1.3-7.6-2.1-12.5-2.9-16.1-4-23.5-6.5-45-1.2-9.9-1.7-15.6-2.5-26.5-.4-4.7-.8-10.3-1-12.5-2.3-24.3-2.2-92.2 0-119 .2-2.8.7-8.2 1-12 .3-3.9.7-8.8.9-11 .2-2.2.7-6.9 1-10.5.4-3.6.8-7.6 1-9 .3-1.4.7-5 1.1-8.1.3-3.1.7-6.5.9-7.5.2-1.1.7-4.2 1-6.9.4-2.8.9-5.7 1.1-6.5.2-.8.6-3.5.9-6 .3-2.5.8-5.4 1-6.5 2.6-13.5 4.9-25.5 5.2-27.4 1.1-5.5 8.6-36.1 10.5-42.5 1.2-3.8 2.2-7.6 2.4-8.5.5-2.5 7.2-23.7 10.2-32.1 4.4-12.9 12.4-33.5 17.8-45.9 6-14.1 6.1-19.2 1.2-37.8-6.5-24.1-10.9-43.1-16.2-68.8-4.2-19.9-8.6-43.5-11-58.5-.3-1.9-.7-4.6-1-6-.2-1.4-.7-4.3-1-6.5-.3-2.3-.7-5-.9-6-.2-1.1-.7-4.5-1.1-7.5-.4-3-.9-6.2-1-7.1-.2-.8-.6-4-.9-7-.3-3-.8-6.3-1-7.4-.2-1.1-.7-4.7-1-8-.4-3.3-.8-7.1-1.1-8.5-.2-1.4-.7-5.2-1-8.5-.7-7-1.4-13.8-2-18-.2-1.7-.7-6.6-1-11-.4-4.4-.9-9.6-1.1-11.5-.1-1.9-.6-7.3-.9-12-.3-4.7-.7-10.8-1-13.5-.9-8.9-2.2-35.8-3-59.5-.5-15.5-.5-93 0-103.5.2-3.9.6-13.3.9-21 .4-7.7.9-16.7 1.1-20 .2-3.3.7-9.6 1-14 .3-4.4.8-11.2 1.1-15 1.1-15.1 1.1-18.2-.3-23.4-.7-3-2.3-7-3.5-9-3.3-5.6-10.7-12.1-16.8-15-7.4-3.5-21-3.7-28-.5-4.1 1.9-24.8 17.6-34.5 26.3-2.3 2-6.5 5.6-9.4 8.1-3 2.5-5.9 4.9-6.5 5.5-.6.5-3.4 3-6.1 5.4-15 13.3-29 26.6-46 43.6-19 19.1-24 24.3-35 36.5-3.2 3.6-7.4 8.3-9.4 10.5-33.4 36.9-81.8 102.7-108.6 147.7-4.8 8-20.8 35.3-23 39.3-11.6 20.7-33.4 64.2-42.3 84.5-1.1 2.5-3.9 8.8-6.2 14-2.3 5.2-6 14-8.1 19.5-2.2 5.5-4.4 10.9-4.9 12-.5 1.1-1.8 4.2-2.8 7-1 2.7-2.2 5.9-2.7 7-.4 1.1-.9 2.4-1.1 3-.1.5-1.4 4.1-2.9 8-5.4 14-21 61.2-24 72.5-.2.8-1.3 4.6-2.4 8.5-5.3 18.9-15 58.7-16.7 68.3-.3 1.5-.9 4.3-1.4 6.2-.5 1.9-1.1 4.6-1.3 6-.6 3.1-3.5 18.7-4.2 22-1.5 7.4-6.1 36.2-8 50-.3 2.5-.8 5.6-1 7-.2 1.4-.6 4.7-1 7.5-.3 2.7-1 8.4-1.5 12.5s-1.1 10.4-1.5 14c-.3 3.6-.8 8.3-1 10.5-.5 5-1.3 13.6-2 24-.4 4.4-.8 10.2-1 12.8-2.7 32.9-2.7 136.6 0 169.7.2 2.5.6 9 1 14.5.3 5.5.8 11.1 1 12.5.2 1.4.6 6.5 1 11.4.4 5 .8 9.8 1 10.8.2 1 .6 5.1 1 9.1.3 3.9.7 8.3.9 9.7.3 1.4.7 5 1 8 .4 3 .8 6.6 1 8 .3 1.4.7 4.7 1.1 7.5.7 5.5.8 6.6 3 21 .8 5.5 1.7 11 1.9 12.1.2 1.2.7 3.9 1 6 .4 2.2 1.4 7.7 2.2 12.4.9 4.7 1.8 9.6 2.1 11 .2 1.4 1.5 7.9 2.9 14.5s2.7 13.3 3 15c.3 1.6 3 13.1 6.1 25.5 25.7 105.4 64.5 200.2 119.6 292 6.1 10.2 12.5 20.6 14.4 23.2 1.8 2.6 3.3 5.2 3.3 5.6 0 .5.9 1.7 2 2.7 1.1 1 2 2.2 2 2.6 0 2.6 55 78.7 59.9 82.9.3.3 3.3 3.9 6.6 8s6.5 8 7 8.6c.6.6 3 3.5 5.5 6.4 2.5 3 5.2 6.1 6 7 .8.9 4.2 4.7 7.5 8.5s6.7 7.7 7.5 8.5c.8.9 6 6.5 11.5 12.5 20.6 22.4 55.8 56.9 80.1 78.5 44 39.1 82.2 68.6 127.9 99 14.5 9.6 20.6 13.5 47 29.6 4.4 2.7 8 4.7 8.1 4.4.1-.3 1 .2 2 1.1 5 4.3 56.6 31.3 86.3 45.1 27.6 12.8 73.4 31.3 96.6 39 3.3 1 6.9 2.3 8 2.8 6.2 2.8 74.3 23.1 81.5 24.4 1.4.2 5 1.1 8 2 3 .8 10.7 2.7 17 4.2 6.3 1.4 12.2 2.7 13 2.9 9.6 2.3 51.6 10.6 60.5 11.9 2.2.4 6.5 1.1 9.5 1.6s7.3 1.2 9.5 1.5c2.2.4 5.1.8 6.5 1 1.4.2 4.8.7 7.5 1.1 2.8.3 5.8.8 6.9 1 1 .2 4.4.6 7.5.9 3.1.3 6.7.8 8 1.1 1.4.3 5 .7 8 1 3.1.2 6.5.6 7.7.8 1.2.2 5.7.7 10 1.1 4.3.4 9 .8 10.4 1 1.4.2 6.1.7 10.5 1 4.4.3 9.6.8 11.5 1 4.1.5 17.7 1.5 27 2 27.6 1.6 48 2 91.5 2 51.1 0 67.6-.5 101-3.1 4.4-.3 10.5-.7 13.5-.9 6.9-.5 17.6-1.5 21.5-2 1.7-.3 6.1-.7 9.8-1 3.7-.3 8.2-.7 10-1 2.9-.4 15-1.9 23.7-3 5.4-.7 12.2-1.6 15-2 14.4-2.3 22.2-3.5 26-4 2.5-.3 5.2-.8 6-1 .8-.2 3.1-.6 5-.9 1.9-.3 8.5-1.5 14.5-2.6 6.1-1.2 12.1-2.3 13.5-2.6 1.4-.2 3.6-.7 5-1 1.4-.3 3.6-.8 5-1.1 1.4-.2 7.7-1.5 14-2.9s12.2-2.7 13-2.9c.8-.1 3.5-.8 6-1.5s5.6-1.4 6.9-1.7c4.6-.8 36.1-9.2 51.6-13.8 12.7-3.7 46.6-14.4 49-15.5 1.1-.5 6.7-2.5 12.5-4.5s11.9-4.3 13.7-5.1c1.7-.8 3.4-1.4 3.7-1.4 2.3 0 55-22 74.2-31 20.6-9.6 60.2-29.8 72.4-37 .8-.5 7.1-4.1 14-8.1 23.4-13.5 76.8-47.9 85.4-55 .6-.5 7.2-5.4 14.6-10.8 7.4-5.5 14.8-11 16.5-12.3 14.2-11 30.6-24.3 44-35.7 15.8-13.4 19-16.2 30.9-27.2 3.4-3.1 8.1-7.4 10.5-9.5 7.5-6.6 51.1-50.4 60.1-60.4 4.7-5.1 10.5-11.6 13-14.3 2.5-2.8 5.2-5.7 6-6.6.8-.9 6.2-7.2 12-14.1 5.8-6.9 10.7-12.7 11-13 .3-.3 2.3-2.8 4.5-5.5 2.1-2.8 4.2-5.2 4.5-5.5 1-.9 20.3-26.1 26.9-35 14-19 25.1-34.9 25.1-35.9 0-.5.4-1.1.8-1.3 1.6-.6 28-42.1 37.5-58.8 12.2-21.5 22.5-40.5 30.2-56 7.6-15.2 10.3-20.9 18.7-38.9 6.9-15 16.4-38.5 28.3-69.6 9.4-24.8 27-82.1 33-107.5.2-.8 1.5-6.2 2.9-12 2.4-10.2 10.1-46 11-51 .2-1.4 1.3-7.7 2.5-14 2-11.3 2.7-15.2 3.5-20.8 1.1-7.1 1.9-11.8 2.1-13.3.2-.9.7-4 1-7 .4-3 .9-6.3 1-7.4.2-1.1.6-4.5.9-7.5.4-3 .9-6.2 1.1-7 .2-.8.7-4.9 1-9 .4-4.1.9-8.2 1-9.1.2-.8.6-4.9.9-9 .4-4.1.9-9 1.1-10.9.2-1.9.7-6.9 1-11 .3-4.1.8-9.8 1-12.5 2.3-27.8 2.9-49.4 3-97.5 0-41.3-.6-68.2-2-82.5-.2-2.2-.6-8.3-1-13.6-.3-5.2-.7-10.6-1-12-.2-1.3-.6-5.8-.9-9.9-.8-10.7-1.6-18.5-2.6-26.5-.5-3.9-1.2-9.1-1.5-11.8-.7-6.7-1.7-13.9-2-15.8-.2-.9-.6-4-1-7-.5-4.4-3.9-25.8-5-31.8-.1-.9-.6-3.6-1-6.1-.9-5.6-1.3-7.8-2-11-.7-3.4-1.1-5.8-2-11-.4-2.5-1.1-6.1-1.6-8-.4-1.9-2.3-10-4-18-4.7-21.7-10.1-43.2-16.4-65-3.1-10.7-5.8-20.3-6-21.2-.2-1-3.8-12-8-24.5-13.1-39-28.5-78.3-44.5-113.8-6.6-14.6-27.1-55.4-33.4-66.3-2-3.5-3.6-6.5-3.6-6.7 0-2.2-46.7-78.4-50-81.5-.3-.3-2.7-3.9-5.5-8-16.7-25.2-55.6-75.5-74.5-96.3-1.4-1.5-2.9-3.3-3.5-4-11.1-14.3-71.5-74.6-93-92.8-2.1-1.9-4.6-4.1-5.5-4.9-.9-.8-4-3.5-7-6s-7-5.9-9-7.6c-24.3-21.1-70.9-55.1-110.8-80.8-32.1-20.7-69.4-41.6-110.7-62-32.5-16.1-67.2-31-98.5-42.5-6.3-2.4-12.2-4.5-13-4.8-.8-.4-1.7-.7-2-.8-.3-.1-1.2-.4-2-.8-.8-.3-7.6-2.7-15-5.2s-14.2-4.8-15-5.1c-9.5-3.4-49.7-15.7-55.2-16.9-.9-.2-5-1.3-9-2.4-18.8-5.2-57.6-14.4-74.8-17.7-1.4-.2-4.7-.9-7.5-1.4-7.8-1.6-9.3-1.9-21-4-6-1.1-12.7-2.2-14.9-2.6-2.1-.3-4.6-.7-5.5-.9-.9-.1-4.1-.6-7.1-1s-6.4-.9-7.5-1.1c-1.1-.2-4-.6-6.5-.9-2.5-.3-5.6-.8-7-1-1.4-.3-4.7-.7-7.5-1-2.7-.3-6.1-.8-7.5-1-1.4-.2-5-.6-8-1-3-.3-7.1-.8-9-1-3.3-.4-7.1-.8-18.7-2-13.3-1.3-25.1-2.3-51.5-4-5.4-.4-13.1-.9-17-1.2-7.9-.6-113.4-1.3-114-.8z"/></svg>